#!OML:ASF H:\Terrain\Patient Classification 1\Terrain2\Thursday\justin.ASF
:FULLY-SPECIFIED
:DEGREES
3873
root 4.48724 17.5877 -21.8491 1468.22 -86.2582 -24.4778
lowerback 4.5745 0.484406 2.03995
upperback 0.277561 0.777272 3.45142
thorax -2.30104 0.358938 2.35932
lowerneck -15.4179 -1.19929 -8.37422
upperneck 30.5705 -0.335178 1.10891
head 12.7882 -1.23315 1.76157
rclavicle 3.08116e-015 -6.36111e-015
rhumerus -32.8635 -14.1354 -75.6586
rradius 25.0816
rwrist -9.08616
rhand -19.9678 12.4811
rfingers 7.12502
rthumb 6.37095 -17.4031
lclavicle 3.08116e-015 -6.36111e-015
lhumerus -39.5993 3.93361 85.2076
lradius 34.7885
lwrist 5.40683
lhand -17.3467 20.8876
lfingers 7.12502
lthumb 8.90076 50.6799
rfemur -20.9682 -7.63588 25.8165
rtibia 21.1799
rfoot -3.01771 4.21972
rtoes 25.6717
lfemur 3.06789 -1.60415 -17.0625
ltibia 34.1875
lfoot 7.82335 -10.5109
ltoes 8.42007
3874
root 4.39503 17.5728 -21.8648 1470.67 -86.0809 -27.1135
lowerback 4.73806 0.497548 2.24234
upperback 0.324886 0.808657 3.53867
thorax -2.34331 0.370967 2.33309
lowerneck -15.4853 -1.18606 -8.04043
upperneck 30.8563 -0.318294 0.786612
head 12.9193 -1.24415 1.58263
rclavicle 8.34896e-015 1.27222e-014
rhumerus -32.5625 -13.8341 -75.7479
rradius 25.4749
rwrist -9.64121
rhand -19.8854 12.2649
rfingers 7.12502
rthumb 6.45042 -17.6169
lclavicle 8.34896e-015 1.27222e-014
lhumerus -39.6805 3.86087 85.3334
lradius 35.2123
lwrist 5.69853
lhand -18.0792 20.9763
lfingers 7.12502
lthumb 8.19387 50.7974
rfemur -20.3635 -8.36469 26.4716
rtibia 20.6321
rfoot -2.80599 4.84418
rtoes 21.3328
lfemur 2.07732 -1.35321 -16.6112
ltibia 36.314
lfoot 9.40793 -10.7339
ltoes 10.9257
3875
root 4.30752 17.5719 -21.8728 1472.56 -85.7156 -29.005
lowerback 4.85344 0.412444 2.65502
upperback 0.259316 0.723894 3.61954
thorax -2.46947 0.322239 2.19055
lowerneck -15.3898 -1.1388 -7.86757
upperneck 30.9386 -0.269039 0.63036
head 12.9299 -1.22884 1.49978
rclavicle -1.38155e-014 -5.56597e-015
rhumerus -32.2957 -13.2024 -75.8955
rradius 25.8785
rwrist -10.044
rhand -19.9921 12.2534
rfingers 7.12502
rthumb 6.3474 -17.6315
lclavicle -1.38155e-014 -5.56597e-015
lhumerus -39.7746 3.62833 85.4683
lradius 35.5685
lwrist 6.03826
lhand -18.0683 21.0517
lfingers 7.12502
lthumb 8.20437 50.8724
rfemur -19.8068 -8.69262 26.9513
rtibia 19.9974
rfoot -2.69075 5.0519
rtoes 19.8288
lfemur 0.809208 -1.48914 -16.1639
ltibia 38.466
lfoot 10.6735 -10.7416
ltoes 12.8484
3876
root 4.21981 17.5822 -21.8825 1473.84 -85.3543 -30.3197
lowerback 4.98095 0.342804 3.04452
upperback 0.224724 0.658925 3.6912
thorax -2.57195 0.283222 2.05064
lowerneck -15.4885 -1.10094 -7.99836
upperneck 31.1733 -0.214611 0.762594
head 13.0465 -1.21351 1.58266
rclavicle 3.8763e-015 -5.00937e-014
rhumerus -32.0029 -12.9574 -75.9645
rradius 26.2219
rwrist -9.65877
rhand -20.3736 12.4184
rfingers 7.12502
rthumb 5.97916 -17.4772
lclavicle 3.8763e-015 -5.00937e-014
lhumerus -39.6894 3.32895 85.5911
lradius 35.7743
lwrist 6.36223
lhand -17.7816 20.6634
lfingers 7.12502
lthumb 8.48114 50.4731
rfemur -19.1275 -8.54195 27.1944
rtibia 19.4071
rfoot -2.60621 4.80905
rtoes 21.5204
lfemur -0.405007 -1.48834 -15.7091
ltibia 40.554
lfoot 11.5136 -11.2331
ltoes 13.4559
3877
root 4.13558 17.5835 -21.8988 1477.14 -84.9221 -33.7681
lowerback 5.08928 0.324739 3.51049
upperback 0.322102 0.658268 3.84103
thorax -2.52868 0.275267 1.94455
lowerneck -15.5427 -1.13896 -8.04426
upperneck 31.2477 -0.284668 0.865378
head 13.0927 -1.23812 1.6203
rclavicle 3.08116e-015 -6.75868e-014
rhumerus -31.4351 -13.2758 -75.9829
rradius 26.3417
rwrist -9.18109
rhand -20.8646 12.7865
rfingers 7.12502
rthumb 5.50508 -17.122
lclavicle 3.08116e-015 -6.75868e-014
lhumerus -39.4646 3.19563 85.6774
lradius 35.9689
lwrist 6.44943
lhand -17.3454 20.5583
lfingers 7.12502
lthumb 8.90205 50.3505
rfemur -18.42 -8.46001 27.7461
rtibia 18.9344
rfoot -2.66963 4.60002
rtoes 21.4101
lfemur -1.47367 -1.3193 -15.0034
ltibia 42.55
lfoot 11.878 -11.9085
ltoes 13.1829
3878
root 4.05471 17.5839 -21.9125 1480.24 -84.4161 -36.9766
lowerback 5.15591 0.305463 4.07572
upperback 0.386864 0.660483 4.00241
thorax -2.49459 0.267401 1.79533
lowerneck -15.3329 -1.14483 -7.97474
upperneck 31.0786 -0.324366 0.83862
head 12.9783 -1.24359 1.59143
rclavicle 1.2921e-014 2.06736e-014
rhumerus -30.9626 -12.8509 -76.1562
rradius 26.7449
rwrist -10.0298
rhand -21.2462 12.9561
rfingers 7.12502
rthumb 5.13659 -16.9616
lclavicle 1.2921e-014 2.06736e-014
lhumerus -39.3914 2.87346 85.8549
lradius 36.2725
lwrist 6.66594
lhand -17.5262 20.7916
lfingers 7.12502
lthumb 8.72754 50.5912
rfemur -17.7764 -8.4433 28.3686
rtibia 18.4788
rfoot -2.85999 4.43475
rtoes 20.8023
lfemur -2.55282 -1.41975 -14.3353
ltibia 44.4742
lfoot 11.5534 -12.0083
ltoes 12.9709
3879
root 3.97107 17.5951 -21.9246 1483.13 -83.9534 -39.9029
lowerback 5.18134 0.356422 4.66853
upperback 0.367656 0.760808 4.12794
thorax -2.52279 0.30744 1.58735
lowerneck -15.1966 -1.14349 -7.94986
upperneck 31.1479 -0.346458 0.82812
head 12.9791 -1.25585 1.5799
rclavicle -4.96962e-015 -2.14687e-014
rhumerus -30.8073 -12.244 -76.1965
rradius 27.4505
rwrist -11.3792
rhand -20.9942 12.9468
rfingers 7.12502
rthumb 5.37996 -16.9649
lclavicle -4.96962e-015 -2.14687e-014
lhumerus -39.3113 2.05886 86.2063
lradius 36.4708
lwrist 7.17343
lhand -18.4699 20.9131
lfingers 7.12502
lthumb 7.81685 50.7486
rfemur -17.1737 -8.21398 28.9164
rtibia 17.9858
rfoot -3.00032 4.17888
rtoes 21.0202
lfemur -3.68443 -1.49912 -13.6967
ltibia 46.3481
lfoot 10.4062 -11.6968
ltoes 12.1218
3880
root 3.88838 17.6044 -21.9424 1486.56 -83.5186 -43.3868
lowerback 5.2051 0.398934 5.11986
upperback 0.411367 0.836616 4.3749
thorax -2.48751 0.336896 1.58652
lowerneck -15.1945 -1.2002 -7.96775
upperneck 31.2843 -0.392961 0.707429
head 13.0401 -1.30146 1.52876
rclavicle 8.94531e-016 -1.03368e-014
rhumerus -30.4551 -12.0959 -75.9838
rradius 27.9405
rwrist -11.7177
rhand -20.4946 12.9679
rfingers 7.12502
rthumb 5.86228 -16.931
lclavicle 8.94531e-016 -1.03368e-014
lhumerus -39.0288 1.88178 86.4645
lradius 36.5087
lwrist 7.16733
lhand -18.702 20.8744
lfingers 7.12502
lthumb 7.59275 50.7182
rfemur -16.6258 -7.86688 29.542
rtibia 17.588
rfoot -3.02519 3.80992
rtoes 21.4783
lfemur -4.77911 -1.43813 -12.9328
ltibia 48.1711
lfoot 8.78223 -11.1125
ltoes 10.5515
3881
root 3.81054 17.6053 -21.9555 1488.64 -83.0689 -45.633
lowerback 5.36573 0.34982 5.57327
upperback 0.506997 0.797945 4.5785
thorax -2.47539 0.309418 1.54775
lowerneck -15.3102 -1.23949 -8.06937
upperneck 31.489 -0.430987 0.753328
head 13.1545 -1.3334 1.55841
rclavicle -3.8763e-015 -2.46493e-014
rhumerus -29.9582 -11.9277 -75.981
rradius 28.3271
rwrist -11.4351
rhand -20.6676 12.767
rfingers 7.12502
rthumb 5.69532 -17.1364
lclavicle -3.8763e-015 -2.46493e-014
lhumerus -38.8203 2.19028 86.4828
lradius 36.6904
lwrist 6.80322
lhand -18.2912 20.852
lfingers 7.12502
lthumb 7.98929 50.681
rfemur -16.045 -8.00612 30.1042
rtibia 17.3013
rfoot -3.01101 3.71907
rtoes 22.0736
lfemur -5.73158 -1.51366 -12.301
ltibia 49.8754
lfoot 7.01255 -10.3341
ltoes 9.39178
3882
root 3.74252 17.6037 -21.9456 1487.72 -82.6796 -44.876
lowerback 5.58212 0.242358 6.17112
upperback 0.553717 0.702993 4.50188
thorax -2.54115 0.253553 1.14244
lowerneck -15.3257 -1.21071 -8.10836
upperneck 31.6517 -0.463276 1.00184
head 13.2263 -1.32591 1.65841
rclavicle 4.67144e-015 -3.97569e-015
rhumerus -29.5606 -11.7498 -76.2587
rradius 28.822
rwrist -11.6166
rhand -21.1649 12.3591
rfingers 7.12502
rthumb 5.21509 -17.5568
lclavicle 4.67144e-015 -3.97569e-015
lhumerus -38.6392 1.99441 86.4536
lradius 36.9595
lwrist 6.84323
lhand -18.0954 21.0198
lfingers 7.12502
lthumb 8.17827 50.8415
rfemur -15.6247 -8.78092 30.3106
rtibia 17.1531
rfoot -3.02577 4.19954
rtoes 22.1939
lfemur -6.77281 -1.87137 -12.1611
ltibia 51.449
lfoot 5.23191 -9.35192
ltoes 8.09633
3883
root 3.66759 17.6014 -21.9548 1487.99 -82.5333 -45.3607
lowerback 5.75896 0.226258 6.35338
upperback 0.673506 0.697709 4.51583
thorax -2.51388 0.249414 1.0555
lowerneck -15.1992 -1.17582 -8.04257
upperneck 31.6414 -0.453681 1.01718
head 13.1928 -1.31226 1.65466
rclavicle -4.96962e-016 -2.38542e-015
rhumerus -29.0395 -11.3848 -76.4313
rradius 29.2655
rwrist -12.2102
rhand -21.4939 12.0276
rfingers 7.12502
rthumb 4.89744 -17.8958
lclavicle -4.96962e-016 -2.38542e-015
lhumerus -38.3554 1.94286 86.4172
lradius 37.0704
lwrist 6.70063
lhand -17.6971 20.721
lfingers 7.12502
lthumb 8.56264 50.5274
rfemur -15.0499 -8.40915 30.389
rtibia 17.1284
rfoot -3.21828 3.88466
rtoes 22.5176
lfemur -7.56169 -1.96671 -12.0091
ltibia 52.7951
lfoot 3.55555 -8.35449
ltoes 7.63871
3884
root 3.59425 17.6029 -21.9628 1487.8 -82.4391 -45.3564
lowerback 5.93573 0.246273 6.33949
upperback 0.789595 0.729169 4.62652
thorax -2.49304 0.264897 1.17511
lowerneck -15.227 -1.20857 -8.09353
upperneck 31.7833 -0.47634 0.973257
head 13.2617 -1.34086 1.64295
rclavicle -4.57205e-015 -3.73715e-014
rhumerus -28.4376 -11.3952 -76.2712
rradius 29.5064
rwrist -12.218
rhand -21.6136 11.9847
rfingers 7.12502
rthumb 4.78186 -17.9413
lclavicle -4.57205e-015 -3.73715e-014
lhumerus -38.1049 2.1588 86.5339
lradius 37.1717
lwrist 6.20527
lhand -17.2755 20.3904
lfingers 7.12502
lthumb 8.96946 50.1797
rfemur -14.5226 -7.83687 30.3644
rtibia 17.2051
rfoot -3.53184 3.30109
rtoes 23.2078
lfemur -8.33537 -2.07073 -11.9436
ltibia 53.9378
lfoot 2.10278 -7.51261
ltoes 9.2282
3885
root 3.52293 17.6055 -21.9732 1486.72 -82.4647 -44.3797
lowerback 6.05382 0.312537 6.18633
upperback 0.843085 0.815824 4.60323
thorax -2.50341 0.310352 1.22846
lowerneck -15.2481 -1.21797 -8.1444
upperneck 32.0349 -0.539908 1.14152
head 13.3765 -1.36358 1.70919
rclavicle 1.76918e-014 2.8625e-014
rhumerus -28.0224 -11.7936 -76.151
rradius 29.7648
rwrist -12.0522
rhand -21.682 12.0487
rfingers 7.12502
rthumb 4.7158 -17.8788
lclavicle 1.76918e-014 2.8625e-014
lhumerus -37.8454 2.0553 86.6251
lradius 37.1972
lwrist 5.93547
lhand -17.291 20.387
lfingers 7.12502
lthumb 8.95452 50.177
rfemur -14.2317 -7.91315 30.2427
rtibia 17.397
rfoot -3.92562 3.3062
rtoes 23.3635
lfemur -9.2456 -1.8942 -12.0148
ltibia 54.879
lfoot 0.835693 -7.29864
ltoes 9.21419
3886
root 3.45116 17.6041 -21.9799 1486.84 -82.4408 -44.619
lowerback 6.21506 0.326544 6.25956
upperback 0.833113 0.855207 4.58565
thorax -2.60184 0.326907 1.16581
lowerneck -15.091 -1.14469 -8.21148
upperneck 32.2414 -0.514398 1.34553
head 13.428 -1.34558 1.80631
rclavicle 1.35174e-014 5.56597e-015
rhumerus -27.8284 -11.5404 -76.145
rradius 30.2914
rwrist -12.5801
rhand -21.925 12.0008
rfingers 7.12502
rthumb 4.48116 -17.9318
lclavicle 1.35174e-014 5.56597e-015
lhumerus -37.7607 2.09188 86.6113
lradius 37.232
lwrist 5.84539
lhand -17.7503 20.3421
lfingers 7.12502
lthumb 8.51127 50.1506
rfemur -14.0352 -8.37071 30.3322
rtibia 17.6816
rfoot -4.32745 3.71733
rtoes 22.8797
lfemur -10.1132 -1.57191 -11.947
ltibia 55.6596
lfoot -0.40147 -7.27166
ltoes 6.64439
